<?xml version="1.0" encoding="utf-8"?>
<svg version="1.1" xmlns:xlink="http://www.w3.org/1999/xlink" width="12px" height="12px" viewBox="516 711.5  12 12" xmlns="http://www.w3.org/2000/svg">
  <path d="M 522 711.5  C 525.36 711.5  528 714.14  528 717.5  C 528 720.86  525.36 723.5  522 723.5  C 518.64 723.5  516 720.86  516 717.5  C 516 714.14  518.64 711.5  522 711.5  Z " fill-rule="nonzero" fill="#ffffff" stroke="none" />
  <path d="M 522 712  C 525.08 712  527.5 714.42  527.5 717.5  C 527.5 720.58  525.08 723  522 723  C 518.92 723  516.5 720.58  516.5 717.5  C 516.5 714.42  518.92 712  522 712  Z " stroke-width="1" stroke="#797979" fill="none" />
  <path d="M 522 720.5  C 520.32 720.5  519 719.18  519 717.5  C 519 715.82  520.32 714.5  522 714.5  C 523.68 714.5  525 715.82  525 717.5  C 525 719.18  523.68 720.5  522 720.5  " fill-rule="nonzero" fill="#797979" stroke="none" />
</svg>