<?xml version="1.0" encoding="utf-8"?>
<svg version="1.1" xmlns:xlink="http://www.w3.org/1999/xlink" width="50px" height="50px" xmlns="http://www.w3.org/2000/svg">
  <g transform="matrix(1 0 0 1 -310 -76 )">
    <path d="M 9.375 0  L 40.625 0  C 43.2074652777778 0  45.4155815972222 0.916883680555552  47.2493489583333 2.75065104166667  C 49.0831163194444 4.58441840277777  50 6.79253472222222  50 9.375  L 50 40.625  C 50 43.2074652777778  49.0831163194444 45.4155815972222  47.2493489583333 47.2493489583333  C 45.4155815972222 49.0831163194444  43.2074652777778 50  40.625 50  L 9.375 50  C 6.79253472222222 50  4.58441840277778 49.0831163194444  2.75065104166667 47.2493489583333  C 0.916883680555555 45.4155815972222  0 43.2074652777778  0 40.625  L 0 9.375  C 0 6.79253472222222  0.916883680555555 4.58441840277777  2.75065104166667 2.75065104166667  C 4.58441840277778 0.916883680555552  6.79253472222222 0  9.375 0  Z M 40.7552083333333 36.5885416666667  C 41.3628472222222 35.9809027777778  41.6666666666667 35.2430555555556  41 34.375  L 41 20.1822916666667  C 40.9939236111111 20.9418402777778  40.2994791666667 21.5386284722222  39.5833333333333 21.97265625  C 38.8454861111111 22.4500868055556  37.4077690972222 23.3723958333333  35.2701822916667 24.7395833333333  C 33.1325954861111 26.1067708333333  31.4887152777778 27.1809895833333  30.3385416666667 27.9622395833333  C 28.2118055555556 29.4596354166667  26.4322916666667 30.2083333333333  25 30.2083333333333  C 23.5677083333333 30.2083333333333  21.7881944444444 29.4596354166667  19.6614583333333 27.9622395833333  C 18.6414930555556 27.2677951388889  17.1006944444444 26.2641059027778  15.0390625 24.951171875  C 12.9774305555556 23.6382378472222  11.4366319444444 22.6345486111111  10.4166666666667 21.9401041666667  C 10.15625 21.7664930555556  9.79817708333333 21.4735243055556  9.34244791666667 21.0611979166667  C 8.88671875 20.6488715277778  8.55034722222222 20.3559027777778  9 20.1822916666667  L 9 34.375  C 8.33333333333333 35.2430555555556  8.63715277777778 35.9809027777778  9.24479166666667 36.5885416666667  C 9.85243055555556 37.1961805555556  10.5902777777778 37.5  11.4583333333333 37  L 38.5416666666667 37  C 39.4097222222222 37.5  40.1475694444445 37.1961805555556  40.7552083333333 36.5885416666667  Z M 40.6412760416667 18.115234375  C 41.3248697916667 17.2580295138889  41.6666666666667 16.4605034722222  41.6666666666667 15.72265625  C 41.6666666666667 14.8328993055556  41.3682725694445 14.0733506944444  40.771484375 13.4440104166667  C 40.1746961805556 12.8146701388889  39.4314236111111 12.5  38.5416666666667 13  L 11.4583333333333 13  C 10.5902777777778 12.5  9.85243055555556 12.8038194444444  9.24479166666667 13.4114583333333  C 8.63715277777778 14.0190972222222  8.33333333333333 14.7569444444444  8.33333333333333 15.625  C 8.33333333333333 16.4279513888889  8.66427951388889 17.2580295138889  9.326171875 18.115234375  C 9.98806423611111 18.9724392361111  10.7204861111111 19.6723090277778  11.5234375 20.21484375  C 12.5434027777778 20.9092881944444  14.0353732638889 21.875  15.9993489583333 23.1119791666667  C 17.9633246527778 24.3489583333333  19.3684895833333 25.2495659722222  20.21484375 25.8138020833333  C 20.2799479166667 25.8572048611111  20.4644097222222 25.9819878472222  20.7682291666667 26.1881510416667  C 21.0720486111111 26.3943142361111  21.2999131944444 26.5462239583333  21.4518229166667 26.6438802083333  C 21.6037326388889 26.7415364583333  21.8315972222222 26.8825954861111  22.1354166666667 27.0670572916667  C 22.4392361111111 27.2515190972222  22.6942274305556 27.392578125  22.900390625 27.490234375  C 23.1065538194444 27.587890625  23.33984375 27.6909722222222  23.6002604166667 27.7994791666667  C 23.8606770833333 27.9079861111111  24.1048177083333 27.9893663194444  24.3326822916667 28.0436197916667  C 24.560546875 28.0978732638889  24.7829861111111 28.125  25 28.125  C 25.2170138888889 28.125  25.439453125 28.0978732638889  25.6673177083333 28.0436197916667  C 25.8951822916667 27.9893663194444  26.1393229166667 27.9079861111111  26.3997395833333 27.7994791666667  C 26.66015625 27.6909722222222  26.8934461805556 27.587890625  27.099609375 27.490234375  C 27.3057725694444 27.392578125  27.5607638888889 27.2515190972222  27.8645833333333 27.0670572916667  C 28.1684027777778 26.8825954861111  28.3962673611111 26.7415364583333  28.5481770833333 26.6438802083333  C 28.7000868055556 26.5462239583333  28.9279513888889 26.3943142361111  29.2317708333333 26.1881510416667  C 29.5355902777778 25.9819878472222  29.7200520833333 25.8572048611111  29.78515625 25.8138020833333  L 38.4765625 20.1497395833333  C 39.2361111111111 19.6506076388889  39.9576822916667 18.9724392361111  40.6412760416667 18.115234375  Z " fill-rule="nonzero" fill="#03989c" stroke="none" transform="matrix(1 0 0 1 310 76 )" />
  </g>
</svg>