<?xml version="1.0" encoding="utf-8"?>
<svg version="1.1" xmlns:xlink="http://www.w3.org/1999/xlink" width="50px" height="46px" xmlns="http://www.w3.org/2000/svg">
  <g transform="matrix(1 0 0 1 -297 -75 )">
    <path d="M 24.3708609271523 23.5788079470199  C 24.7902869757174 23.9646799116998  25 24.4216335540839  25 24.9496688741722  L 25 38.5973509933775  C 25 39.1253863134658  24.7902869757174 39.5823399558499  24.3708609271523 39.9682119205298  C 23.9514348785872 40.3540838852097  23.4547461368653 40.5470198675497  22.8807947019868 40.5470198675497  C 22.3068432671082 40.5470198675497  21.8101545253863 40.3540838852097  21.3907284768212 39.9682119205298  L 16.6225165562914 35.5814569536424  L 5.62913907284768 45.6953642384106  C 5.4083885209713 45.8984547461369  5.15452538631347 46  4.86754966887417 46  C 4.58057395143488 46  4.32671081677704 45.8984547461369  4.10596026490066 45.6953642384106  L 0.33112582781457 42.2225165562914  C 0.11037527593819 42.0194260485651  0 41.7858719646799  0 41.5218543046358  C 0 41.2578366445916  0.11037527593819 41.0242825607064  0.33112582781457 40.8211920529801  L 11.3245033112583 30.7072847682119  L 6.55629139072848 26.3205298013245  C 6.13686534216335 25.9346578366446  5.9271523178808 25.4777041942605  5.9271523178808 24.9496688741722  C 5.9271523178808 24.4216335540839  6.13686534216335 23.9646799116998  6.55629139072848 23.5788079470199  C 6.9757174392936 23.19293598234  7.47240618101545 23  8.04635761589404 23  L 22.8807947019868 23  C 23.4547461368653 23  23.9514348785872 23.19293598234  24.3708609271523 23.5788079470199  Z M 49.6688741721854 3.77748344370861  C 49.8896247240618 3.98057395143487  50 4.21412803532008  50 4.47814569536424  C 50 4.74216335540839  49.8896247240618 4.9757174392936  49.6688741721854 5.17880794701987  L 38.6754966887417 15.2927152317881  L 43.4437086092715 19.6794701986755  C 43.8631346578366 20.0653421633554  44.0728476821192 20.5222958057395  44.0728476821192 21.0503311258278  C 44.0728476821192 21.5783664459161  43.8631346578366 22.0353200883002  43.4437086092715 22.4211920529801  C 43.0242825607064 22.80706401766  42.5275938189846 23  41.953642384106 23  L 27.1192052980132 23  C 26.5452538631347 23  26.0485651214128 22.80706401766  25.6291390728477 22.4211920529801  C 25.2097130242826 22.0353200883002  25 21.5783664459161  25 21.0503311258278  L 25 7.40264900662252  C 25 6.87461368653421  25.2097130242826 6.41766004415011  25.6291390728477 6.0317880794702  C 26.0485651214128 5.64591611479029  26.5452538631347 5.45298013245033  27.1192052980132 5.45298013245033  C 27.6931567328918 5.45298013245033  28.1898454746137 5.64591611479029  28.6092715231788 6.0317880794702  L 33.3774834437086 10.4185430463576  L 44.3708609271523 0.304635761589406  C 44.5916114790287 0.10154525386313  44.8454746136865 0  45.1324503311258 0  C 45.4194260485651 0  45.673289183223 0.10154525386313  45.8940397350993 0.304635761589406  L 49.6688741721854 3.77748344370861  Z " fill-rule="nonzero" fill="#03989c" stroke="none" transform="matrix(1 0 0 1 297 75 )" />
  </g>
</svg>