<?xml version="1.0" encoding="utf-8"?>
<svg version="1.1" xmlns:xlink="http://www.w3.org/1999/xlink" width="47px" height="40px" xmlns="http://www.w3.org/2000/svg">
  <g transform="matrix(1 0 0 1 -303 -78 )">
    <path d="M 46.3371474188398 22.1875  C 46.7790491396133 22.4337121212121  47 22.8409090909091  47 23.4090909090909  C 47 23.9962121212121  46.7415291821891 24.6212121212121  46.2245875465673 25.2840909090909  L 37.8201170835551 36.5340909090909  C 37.1030690083378 37.5  36.0983679262019 38.3191287878788  34.8060138371474 38.9914772727273  C 33.513659748093 39.6638257575758  32.317189994678 40  31.2166045769026 40  L 4.00212879191059 40  C 3.43516054638992 40  2.93072556324286 39.8768939393939  2.4888238424694 39.6306818181818  C 2.04692212169594 39.3844696969697  1.82597126130921 38.9772727272727  1.82597126130921 38.4090909090909  C 1.82597126130921 37.8219696969697  2.0844420791201 37.1969696969697  2.60138371474188 36.5340909090909  L 11.0058541777541 25.2840909090909  C 11.7229022529714 24.3181818181818  12.7276033351073 23.499053030303  14.0199574241618 22.8267045454545  C 15.3123115132163 22.1543560606061  16.5087812666312 21.8181818181818  17.6093666844066 21.8181818181818  L 44.8238424693986 21.8181818181818  C 45.3908107149193 21.8181818181818  45.8952456980664 21.9412878787879  46.3371474188398 22.1875  Z M 36.7695582756786 9.14772727272727  C 37.870143693454 10.3977272727273  38.4204364023417 11.8939393939394  38.4204364023417 13.6363636363636  L 38.4204364023417 18.1818181818182  L 17.6093666844066 18.1818181818182  C 16.0418662409083 18.1818181818182  14.3993258825616 18.6316287878788  12.6817456093667 19.53125  C 10.9641653361717 20.4308712121212  9.59677133226894 21.5625  8.57956359765833 22.9261363636364  L 0.150079829696647 34.1761363636364  L 0.0250133049494412 34.3465909090909  C 0.0250133049494412 34.2708333333333  0.020844420791201 34.1524621212121  0.0125066524747206 33.9914772727273  C 0.0041688841582402 33.8304924242424  0 33.7121212121212  0 33.6363636363636  L 0 6.36363636363636  C 0 4.62121212121211  0.550292708887706 3.125  1.65087812666312 1.875  C 2.75146354443853 0.625  4.06883093844243 0  5.60298030867483 0  L 13.607237892496 0  C 15.1413872627284 0  16.4587546567323 0.625  17.5593400745077 1.875  C 18.6599254922831 3.125  19.2102182011708 4.62121212121211  19.2102182011708 6.36363636363636  L 19.2102182011708 8  L 32.8174560936668 8  C 34.3516054638992 7.27272727272727  35.6689728579031 7.89772727272727  36.7695582756786 9.14772727272727  Z " fill-rule="nonzero" fill="#03989c" stroke="none" transform="matrix(1 0 0 1 303 78 )" />
  </g>
</svg>