<?xml version="1.0" encoding="utf-8"?>
<svg version="1.1" xmlns:xlink="http://www.w3.org/1999/xlink" width="12px" height="12px" viewBox="31 91.5  12 12" xmlns="http://www.w3.org/2000/svg">
  <path d="M 37 91.5  C 40.36 91.5  43 94.14  43 97.5  C 43 100.86  40.36 103.5  37 103.5  C 33.64 103.5  31 100.86  31 97.5  C 31 94.14  33.64 91.5  37 91.5  Z " fill-rule="nonzero" fill="#ffffff" stroke="none" />
  <path d="M 37 92  C 40.08 92  42.5 94.42  42.5 97.5  C 42.5 100.58  40.08 103  37 103  C 33.92 103  31.5 100.58  31.5 97.5  C 31.5 94.42  33.92 92  37 92  Z " stroke-width="1" stroke="#797979" fill="none" />
  <path d="M 37 100.5  C 35.32 100.5  34 99.18  34 97.5  C 34 95.82  35.32 94.5  37 94.5  C 38.68 94.5  40 95.82  40 97.5  C 40 99.18  38.68 100.5  37 100.5  " fill-rule="nonzero" fill="#797979" stroke="none" />
</svg>