<?xml version="1.0" encoding="utf-8"?>
<svg version="1.1" xmlns:xlink="http://www.w3.org/1999/xlink" width="12px" height="12px" viewBox="167 91.5  12 12" xmlns="http://www.w3.org/2000/svg">
  <path d="M 173 91.5  C 176.36 91.5  179 94.14  179 97.5  C 179 100.86  176.36 103.5  173 103.5  C 169.64 103.5  167 100.86  167 97.5  C 167 94.14  169.64 91.5  173 91.5  Z " fill-rule="nonzero" fill="#ffffff" stroke="none" />
  <path d="M 173 92  C 176.08 92  178.5 94.42  178.5 97.5  C 178.5 100.58  176.08 103  173 103  C 169.92 103  167.5 100.58  167.5 97.5  C 167.5 94.42  169.92 92  173 92  Z " stroke-width="1" stroke="#797979" fill="none" />
  <path d="M 173 100.5  C 171.32 100.5  170 99.18  170 97.5  C 170 95.82  171.32 94.5  173 94.5  C 174.68 94.5  176 95.82  176 97.5  C 176 99.18  174.68 100.5  173 100.5  " fill-rule="nonzero" fill="#797979" stroke="none" />
</svg>