<?xml version="1.0" encoding="utf-8"?>
<svg version="1.1" xmlns:xlink="http://www.w3.org/1999/xlink" width="18px" height="8px" xmlns="http://www.w3.org/2000/svg">
  <g transform="matrix(1 0 0 1 -487 -75 )">
    <path d="M 17.5757575757576 5.97979797979798  C 17.8585858585859 6.10549943883277  18 6.25813692480359  18 6.43771043771044  C 18 6.61728395061728  17.8585858585859 6.7699214365881  17.5757575757576 6.8956228956229  L 15.5151515151515 7.81144781144781  C 15.2323232323232 7.9371492704826  14.8888888888889 8  14.4848484848485 8  C 14.0808080808081 8  13.7373737373737 7.9371492704826  13.4545454545455 7.81144781144781  L 9 5.83164983164983  L 4.54545454545455 7.81144781144781  C 4.26262626262626 7.9371492704826  3.91919191919192 8  3.51515151515152 8  C 3.11111111111111 8  2.76767676767677 7.9371492704826  2.48484848484848 7.81144781144781  L 0.424242424242424 6.8956228956229  C 0.141414141414142 6.7699214365881  0 6.61728395061728  0 6.43771043771044  C 0 6.25813692480359  0.141414141414142 6.10549943883277  0.424242424242424 5.97979797979798  L 4.87878787878788 4  L 0.424242424242424 2.02020202020202  C 0.141414141414142 1.89450056116723  0 1.74186307519641  0 1.56228956228956  C 0 1.38271604938272  0.141414141414142 1.2300785634119  0.424242424242424 1.1043771043771  L 2.48484848484848 0.188552188552189  C 2.76767676767677 0.0628507295173959  3.11111111111111 0  3.51515151515152 0  C 3.91919191919192 0  4.26262626262626 0.0628507295173959  4.54545454545455 0.188552188552189  L 9 2.16835016835017  L 13.4545454545455 0.188552188552189  C 13.7373737373737 0.0628507295173959  14.0808080808081 0  14.4848484848485 0  C 14.8888888888889 0  15.2323232323232 0.0628507295173959  15.5151515151515 0.188552188552189  L 17.5757575757576 1.1043771043771  C 17.8585858585859 1.2300785634119  18 1.38271604938272  18 1.56228956228956  C 18 1.74186307519641  17.8585858585859 1.89450056116723  17.5757575757576 2.02020202020202  L 13.1212121212121 4  L 17.5757575757576 5.97979797979798  Z " fill-rule="nonzero" fill="#333333" stroke="none" transform="matrix(1 0 0 1 487 75 )" />
  </g>
</svg>