<?xml version="1.0" encoding="utf-8"?>
<svg version="1.1" xmlns:xlink="http://www.w3.org/1999/xlink" width="13px" height="9px" xmlns="http://www.w3.org/2000/svg">
  <g transform="matrix(1 0 0 1 -31 -74 )">
    <path d="M 7.97265625 5.51953125  C 8.65755208333333 5.04537259615385  9 4.47475961538462  9 3.80769230769231  C 9 3.140625  8.65755208333333 2.57001201923077  7.97265625 2.09585336538462  C 7.28776041666667 1.62169471153846  6.46354166666667 1.38461538461538  5.5 1.38461538461538  C 4.53645833333333 1.38461538461538  3.71223958333333 1.62169471153846  3.02734375 2.09585336538462  C 2.34244791666667 2.57001201923077  2 3.140625  2 3.80769230769231  C 2 4.47475961538462  2.34244791666667 5.04537259615385  3.02734375 5.51953125  C 3.71223958333333 5.99368990384615  4.53645833333333 6.23076923076923  5.5 6.23076923076923  C 6.46354166666667 6.23076923076923  7.28776041666667 5.99368990384615  7.97265625 5.51953125  Z M 12.7109375 7.82091346153846  C 12.9036458333333 7.95432692307692  13 8.11658653846154  13 8.30769230769231  C 13 8.49519230769231  12.9010416666667 8.65745192307692  12.703125 8.79447115384615  C 12.5052083333333 8.93149038461539  12.2708333333333 9  12 9  C 11.71875 9  11.484375 8.93149038461539  11.296875 8.79447115384615  L 8.6171875 6.94471153846154  C 7.68489583333333 7.39182692307692  6.64583333333333 7.61538461538462  5.5 7.61538461538462  C 4.75520833333333 7.61538461538462  4.04296875 7.51532451923077  3.36328125 7.31520432692308  C 2.68359375 7.11508413461539  2.09765625 6.84465144230769  1.60546875 6.50390625  C 1.11328125 6.16316105769231  0.72265625 5.75751201923077  0.43359375 5.28695913461539  C 0.14453125 4.81640625  0 4.32331730769231  0 3.80769230769231  C 0 3.29206730769231  0.14453125 2.79897836538462  0.43359375 2.32842548076923  C 0.72265625 1.85787259615385  1.11328125 1.45222355769231  1.60546875 1.11147836538462  C 2.09765625 0.770733173076923  2.68359375 0.500300480769231  3.36328125 0.300180288461539  C 4.04296875 0.100060096153846  4.75520833333333 0  5.5 0  C 6.24479166666667 0  6.95703125 0.100060096153846  7.63671875 0.300180288461539  C 8.31640625 0.500300480769231  8.90234375 0.770733173076923  9.39453125 1.11147836538462  C 9.88671875 1.45222355769231  10.27734375 1.85787259615385  10.56640625 2.32842548076923  C 10.85546875 2.79897836538462  11 3.29206730769231  11 3.80769230769231  C 11 4.60096153846154  10.6770833333333 5.3203125  10.03125 5.96574519230769  L 12.7109375 7.82091346153846  Z " fill-rule="nonzero" fill="#aaaaaa" stroke="none" transform="matrix(1 0 0 1 31 74 )" />
  </g>
</svg>