<?xml version="1.0" encoding="utf-8"?>
<svg version="1.1" xmlns:xlink="http://www.w3.org/1999/xlink" width="21px" height="20px" xmlns="http://www.w3.org/2000/svg">
  <g transform="matrix(1 0 0 1 -548 -17 )">
    <path d="M 20.0184135977337 0  C 20.4348441926346 0  20.7273371104816 0.184659090909092  20.8958923512748 0.553977272727273  C 21.064447592068 0.942234848484846  20.9950424929178 1.27367424242424  20.6876770538244 1.54829545454545  L 13 8.55113636363637  L 13 19.0909090909091  C 13.3555240793201 19.4886363636364  13.1621813031161 19.7679924242424  12.7754957507082 19.9289772727273  C 12.6466005665722 19.9763257575758  12.5226628895184 20  12.4036827195467 20  C 12.1359773371105 20  11.9128895184136 19.9100378787879  11.7344192634561 19.7301136363636  L 7.92705382436261 16.09375  C 7.73866855524079 15.9138257575758  7.64447592067989 15.7007575757576  7.64447592067989 15.4545454545455  L 7.64447592067989 8.55113636363637  L 0.312322946175637 1.54829545454545  C 0.00495750708215297 1.27367424242424  -0.0644475920679887 0.942234848484846  0.104107648725212 0.553977272727273  C 0.272662889518414 0.184659090909092  0.565155807365439 0  0.981586402266289 0  L 20.0184135977337 0  Z " fill-rule="nonzero" fill="#000000" stroke="none" transform="matrix(1 0 0 1 548 17 )" />
  </g>
</svg>