<?xml version="1.0" encoding="utf-8"?>
<svg version="1.1" xmlns:xlink="http://www.w3.org/1999/xlink" width="28px" height="24px" xmlns="http://www.w3.org/2000/svg">
  <g transform="matrix(1 0 0 1 -28 -75 )">
    <path d="M 27.6536458333333 19.55625  C 27.8845486111111 19.79375  28 20.075  28 20.4  L 28 22.8  C 28 23.125  27.8845486111111 23.40625  27.6536458333333 23.64375  C 27.4227430555556 23.88125  27.1493055555556 24  26.8333333333333 24  L 1.16666666666667 24  C 0.850694444444445 24  0.577256944444444 23.88125  0.346354166666667 23.64375  C 0.115451388888889 23.40625  0 23.125  0 22.8  L 0 20.4  C 0 20.075  0.115451388888889 19.79375  0.346354166666667 19.55625  C 0.577256944444444 19.31875  0.850694444444445 19.2  1.16666666666667 19  L 26.8333333333333 19  C 27.1493055555556 19.2  27.4227430555556 19.31875  27.6536458333333 19.55625  Z M 27.6536458333333 9.95625  C 27.8845486111111 10.19375  28 10.475  28 10.8  L 28 13.2  C 28 13.525  27.8845486111111 13.80625  27.6536458333333 14.04375  C 27.4227430555556 14.28125  27.1493055555556 14.4  26.8333333333333 14  L 1.16666666666667 14  C 0.850694444444445 14.4  0.577256944444444 14.28125  0.346354166666667 14.04375  C 0.115451388888889 13.80625  0 13.525  0 13.2  L 0 10.8  C 0 10.475  0.115451388888889 10.19375  0.346354166666667 9.95625  C 0.577256944444444 9.71875  0.850694444444445 9.6  1.16666666666667 10  L 26.8333333333333 10  C 27.1493055555556 9.6  27.4227430555556 9.71875  27.6536458333333 9.95625  Z M 27.6536458333333 0.356250000000001  C 27.8845486111111 0.593749999999998  28 0.874999999999998  28 1.2  L 28 3.6  C 28 3.925  27.8845486111111 4.20625  27.6536458333333 4.44375  C 27.4227430555556 4.68125  27.1493055555556 4.8  26.8333333333333 5  L 1.16666666666667 5  C 0.850694444444445 4.8  0.577256944444444 4.68125  0.346354166666667 4.44375  C 0.115451388888889 4.20625  0 3.925  0 3.6  L 0 1.2  C 0 0.874999999999998  0.115451388888889 0.593749999999998  0.346354166666667 0.356250000000001  C 0.577256944444444 0.118749999999999  0.850694444444445 0  1.16666666666667 0  L 26.8333333333333 0  C 27.1493055555556 0  27.4227430555556 0.118749999999999  27.6536458333333 0.356250000000001  Z " fill-rule="nonzero" fill="#03989c" stroke="none" transform="matrix(1 0 0 1 28 75 )" />
  </g>
</svg>