<?xml version="1.0" encoding="utf-8"?>
<svg version="1.1" xmlns:xlink="http://www.w3.org/1999/xlink" width="12px" height="12px" viewBox="616 711.5  12 12" xmlns="http://www.w3.org/2000/svg">
  <path d="M 622 711.5  C 625.36 711.5  628 714.14  628 717.5  C 628 720.86  625.36 723.5  622 723.5  C 618.64 723.5  616 720.86  616 717.5  C 616 714.14  618.64 711.5  622 711.5  Z " fill-rule="nonzero" fill="#ffffff" stroke="none" />
  <path d="M 622 712  C 625.08 712  627.5 714.42  627.5 717.5  C 627.5 720.58  625.08 723  622 723  C 618.92 723  616.5 720.58  616.5 717.5  C 616.5 714.42  618.92 712  622 712  Z " stroke-width="1" stroke="#797979" fill="none" />
  <path d="M 622 720.5  C 620.32 720.5  619 719.18  619 717.5  C 619 715.82  620.32 714.5  622 714.5  C 623.68 714.5  625 715.82  625 717.5  C 625 719.18  623.68 720.5  622 720.5  " fill-rule="nonzero" fill="#797979" stroke="none" />
</svg>