<?xml version="1.0" encoding="utf-8"?>
<svg version="1.1" xmlns:xlink="http://www.w3.org/1999/xlink" width="50px" height="50px" xmlns="http://www.w3.org/2000/svg">
  <g transform="matrix(1 0 0 1 -422 -281 )">
    <path d="M 40.9505208333333 37.9557291666667  C 41.4279513888889 36.8055555555556  41.6666666666667 35.7096354166667  41.6666666666667 34.66796875  C 41.6666666666667 34.4292534722222  41.6449652777778 34.2556423611111  41.6015625 34.1471354166667  C 41.5581597222222 34.0386284722222  41.3628472222222 33.8595920138889  41.015625 33.6100260416667  C 40.6684027777778 33.3604600694444  40.2289496527778 33.0891927083333  39.697265625 32.7962239583333  C 39.1655815972222 32.5032552083333  38.6501736111111 32.2157118055556  38.1510416666667 31.93359375  C 37.6519097222222 31.6514756944444  37.158203125 31.3802083333333  36.669921875 31.1197916666667  C 36.181640625 30.859375  35.8723958333333 30.6966145833333  35.7421875 30.6315104166667  C 35.6336805555556 30.56640625  35.4275173611111 30.4253472222222  35.1236979166667 30.2083333333333  C 34.8198784722222 29.9913194444444  34.5486111111111 29.8285590277778  34.3098958333333 29.7200520833333  C 34.0711805555556 29.6115451388889  33.8433159722222 29.5572916666667  33.6263020833333 29.5572916666667  C 33.30078125 29.5572916666667  32.9047309027778 29.7797309027778  32.4381510416667 30.224609375  C 31.9715711805556 30.6694878472222  31.54296875 31.1577690972222  31.15234375 31.689453125  C 30.76171875 32.2211371527778  30.3439670138889 32.7094184027778  29.8990885416667 33.154296875  C 29.4542100694444 33.5991753472222  29.0907118055556 33.8216145833333  28.80859375 33.8216145833333  C 28.6566840277778 33.8216145833333  28.4776475694444 33.7836371527778  28.271484375 33.7076822916667  C 28.0653211805556 33.6317274305556  27.8971354166667 33.5611979166667  27.7669270833333 33.49609375  C 27.63671875 33.4309895833333  27.4522569444444 33.3279079861111  27.2135416666667 33.1868489583333  C 26.9748263888889 33.0457899305556  26.8229166666667 32.9535590277778  26.7578125 32.91015625  C 24.609375 31.7165798611111  22.7647569444444 30.3439670138889  21.2239583333333 28.7923177083333  C 19.6831597222222 27.2406684027778  18.3051215277778 25.390625  17.08984375 23.2421875  C 17.0464409722222 23.1770833333333  16.9542100694444 23.0251736111111  16.8131510416667 22.7864583333333  C 16.6720920138889 22.5477430555556  16.5690104166667 22.36328125  16.50390625 22.2330729166667  C 16.4388020833333 22.1028645833333  16.3682725694444 21.9346788194444  16.2923177083333 21.728515625  C 16.2163628472222 21.5223524305556  16.1783854166667 21.3433159722222  16.1783854166667 21.19140625  C 16.1783854166667 20.9092881944444  16.4008246527778 20.5457899305556  16.845703125 20.1009114583333  C 17.2905815972222 19.6560329861111  17.7788628472222 19.23828125  18.310546875 18.84765625  C 18.8422309027778 18.45703125  19.3305121527778 18.0284288194444  19.775390625 17.5618489583333  C 20.2202690972222 17.0952690972222  20.4427083333333 16.69921875  20.4427083333333 16.3736979166667  C 20.4427083333333 16.1566840277778  20.3884548611111 15.9288194444444  20.2799479166667 15.6901041666667  C 20.1714409722222 15.4513888888889  20.0086805555556 15.1801215277778  19.7916666666667 14.8763020833333  C 19.5746527777778 14.5724826388889  19.43359375 14.3663194444444  19.3684895833333 14.2578125  C 19.3033854166667 14.1276041666667  19.140625 13.818359375  18.8802083333333 13.330078125  C 18.6197916666667 12.841796875  18.3485243055556 12.3480902777778  18.06640625 11.8489583333333  C 17.7842881944444 11.3498263888889  17.4967447916667 10.8344184027778  17.2037760416667 10.302734375  C 16.9108072916667 9.77105034722222  16.6395399305556 9.33159722222222  16.3899739583333 8.984375  C 16.1404079861111 8.63715277777777  15.9613715277778 8.44184027777777  15.8528645833333 8.3984375  C 15.7443576388889 8.35503472222222  15.5707465277778 8.33333333333333  15.33203125 8.33333333333333  C 14.2903645833333 8.33333333333333  13.1944444444444 8.57204861111111  12.0442708333333 9.04947916666667  C 11.0460069444444 9.50520833333333  10.1779513888889 10.5305989583333  9.44010416666667 12.1256510416667  C 8.70225694444445 13.720703125  8.33333333333333 15.13671875  8.33333333333333 16.3736979166667  C 8.33333333333333 16.7209201388889  8.36046006944445 17.08984375  8.41471354166667 17.48046875  C 8.46896701388889 17.87109375  8.52322048611111 18.2020399305556  8.57747395833333 18.4733072916667  C 8.63172743055556 18.7445746527778  8.72938368055556 19.1026475694444  8.87044270833333 19.5475260416667  C 9.01150173611111 19.9924045138889  9.12000868055556 20.3125  9.19596354166667 20.5078125  C 9.27191840277778 20.703125  9.40755208333333 21.0611979166667  9.60286458333333 21.58203125  C 9.79817708333333 22.1028645833333  9.91753472222222 22.4283854166667  9.9609375 22.55859375  C 11.2630208333333 26.1176215277778  13.6121961805556 29.5952690972222  17.0084635416667 32.9915364583333  C 20.4047309027778 36.3878038194444  23.8823784722222 38.7369791666667  27.44140625 40.0390625  C 27.5716145833333 40.0824652777778  27.8971354166667 40.2018229166667  28.41796875 40.3971354166667  C 28.9388020833333 40.5924479166667  29.296875 40.7280815972222  29.4921875 40.8040364583333  C 29.6875 40.8799913194444  30.0075954861111 40.9884982638889  30.4524739583333 41.1295572916667  C 30.8973524305556 41.2706163194444  31.2554253472222 41.3682725694444  31.5266927083333 41.4225260416667  C 31.7979600694444 41.4767795138889  32.12890625 41.5310329861111  32.51953125 41.5852864583333  C 32.91015625 41.6395399305556  33.2790798611111 41.6666666666667  33.6263020833333 41.6666666666667  C 34.86328125 41.6666666666667  36.279296875 41.2977430555556  37.8743489583333 40.5598958333333  C 39.4694010416667 39.8220486111111  40.4947916666667 38.9539930555556  40.9505208333333 37.9557291666667  Z M 47.2493489583333 2.75065104166667  C 49.0831163194444 4.58441840277777  50 6.79253472222222  50 9.375  L 50 40.625  C 50 43.2074652777778  49.0831163194444 45.4155815972222  47.2493489583333 47.2493489583333  C 45.4155815972222 49.0831163194444  43.2074652777778 50  40.625 50  L 9.375 50  C 6.79253472222222 50  4.58441840277778 49.0831163194444  2.75065104166667 47.2493489583333  C 0.916883680555555 45.4155815972222  0 43.2074652777778  0 40.625  L 0 9.375  C 0 6.79253472222222  0.916883680555555 4.58441840277777  2.75065104166667 2.75065104166667  C 4.58441840277778 0.916883680555552  6.79253472222222 0  9.375 0  L 40.625 0  C 43.2074652777778 0  45.4155815972222 0.916883680555552  47.2493489583333 2.75065104166667  Z " fill-rule="nonzero" fill="#03989c" stroke="none" transform="matrix(1 0 0 1 422 281 )" />
  </g>
</svg>