<?xml version="1.0" encoding="utf-8"?>
<svg version="1.1" xmlns:xlink="http://www.w3.org/1999/xlink" width="12px" height="12px" viewBox="508 277.5  12 12" xmlns="http://www.w3.org/2000/svg">
  <path d="M 514 277.5  C 517.36 277.5  520 280.14  520 283.5  C 520 286.86  517.36 289.5  514 289.5  C 510.64 289.5  508 286.86  508 283.5  C 508 280.14  510.64 277.5  514 277.5  Z " fill-rule="nonzero" fill="#f0f0f0" stroke="none" />
  <path d="M 514 278  C 517.08 278  519.5 280.42  519.5 283.5  C 519.5 286.58  517.08 289  514 289  C 510.92 289  508.5 286.58  508.5 283.5  C 508.5 280.42  510.92 278  514 278  Z " stroke-width="1" stroke="#797979" fill="none" />
  <path d="M 514 286.5  C 512.32 286.5  511 285.18  511 283.5  C 511 281.82  512.32 280.5  514 280.5  C 515.68 280.5  517 281.82  517 283.5  C 517 285.18  515.68 286.5  514 286.5  " fill-rule="nonzero" fill="#797979" stroke="none" />
</svg>